<!--?xml version="1.0" standalone="no"?-->
              <svg id="sw-js-blob-svg" viewBox="0 0 100 100" xmlns="http://www.w3.org/2000/svg" version="1.1">
                    <defs> 
                        <linearGradient id="sw-gradient" x1="0" x2="1" y1="1" y2="0">
                            <stop id="stop1" stop-color="rgba(19.687, 12.817, 80.897, 1)" offset="0%"></stop>
                            <stop id="stop2" stop-color="rgba(11.023, 4.263, 37.638, 1)" offset="100%"></stop>
                        </linearGradient>
                    </defs>
                <path fill="url(#sw-gradient)" d="M18.2,-22.7C25.2,-20,33.5,-16.8,34.4,-11.7C35.4,-6.6,29,0.4,24.1,5.5C19.2,10.5,15.7,13.7,12,19.3C8.2,25,4.1,33.1,-2.6,36.6C-9.2,40.1,-18.5,39.1,-23.3,33.8C-28.1,28.5,-28.5,19,-31.4,10.2C-34.3,1.4,-39.6,-6.6,-36.4,-10.4C-33.2,-14.2,-21.5,-13.9,-14,-16.4C-6.6,-18.9,-3.3,-24.3,1.2,-25.9C5.6,-27.5,11.3,-25.4,18.2,-22.7Z" width="100%" height="100%" transform="translate(50 50)" stroke-width="0" style="transition: all 0.3s ease 0s;" stroke="url(#sw-gradient)"></path>
              </svg>