<!--?xml version="1.0" standalone="no"?-->
              <svg id="sw-js-blob-svg" viewBox="0 0 100 100" xmlns="http://www.w3.org/2000/svg" version="1.1">
                    <defs> 
                        <linearGradient id="sw-gradient" x1="0" x2="1" y1="1" y2="0">
                            <stop id="stop1" stop-color="rgba(3.69, 9.96, 64.96, 1)" offset="0%"></stop>
                            <stop id="stop2" stop-color="rgba(6.29, 4.199, 67.236, 1)" offset="100%"></stop>
                        </linearGradient>
                    </defs>
                <path fill="none" d="M16.3,-18.6C24,-12.9,35.3,-10.5,39.8,-4.1C44.4,2.2,42.2,12.7,36.4,19.4C30.6,26,21.1,29,12.6,30C4.2,31,-3.2,30,-11.8,28.6C-20.4,27.1,-30.1,25,-33,19.4C-35.8,13.7,-31.7,4.4,-30.1,-5.4C-28.5,-15.2,-29.3,-25.6,-24.7,-31.9C-20.1,-38.2,-10.1,-40.5,-2.9,-37C4.2,-33.5,8.5,-24.4,16.3,-18.6Z" width="100%" height="100%" transform="translate(50 50)" stroke-width="1" style="transition: all 0.3s ease 0s;" stroke="url(#sw-gradient)"></path>
              </svg>